<svg viewBox="0 0 32 32" xml:space="preserve" xmlns="http://www.w3.org/2000/svg"><path d="M16.33 31c-5.777 0-10.942-3.203-13.481-8.358A14.926 14.926 0 0 1 1.31 16c0-2.333.518-4.569 1.54-6.644C5.388 4.202 10.553 1 16.33 1c3.66 0 7.083 1.296 9.898 3.748a.499.499 0 0 1 .025.731L22.03 9.697a.501.501 0 0 1-.67.033 7.866 7.866 0 0 0-5.03-1.799 8.054 8.054 0 0 0-7.67 5.533A8.105 8.105 0 0 0 8.25 16c0 .854.137 1.705.408 2.53a8.057 8.057 0 0 0 7.672 5.538c1.744 0 3.319-.412 4.556-1.191a5.993 5.993 0 0 0 2.021-2.081.5.5 0 1 1 .867.501 6.984 6.984 0 0 1-2.354 2.426c-1.397.88-3.156 1.345-5.089 1.345a9.056 9.056 0 0 1-8.622-6.226A9.07 9.07 0 0 1 7.25 16c0-.963.155-1.921.46-2.849a9.051 9.051 0 0 1 8.62-6.22 8.84 8.84 0 0 1 5.305 1.746l3.526-3.521C22.611 3.089 19.569 2 16.33 2 10.937 2 6.116 4.988 3.747 9.797A13.918 13.918 0 0 0 2.31 16c0 2.176.483 4.263 1.437 6.2 2.368 4.811 7.19 7.8 12.583 7.8 3.464 0 6.704-1.236 9.121-3.48 2.774-2.575 4.24-6.212 4.24-10.52 0-.601-.071-1.272-.212-2H17v4.466h7.118a.5.5 0 0 1 0 1H16.5a.5.5 0 0 1-.5-.5V13.5a.5.5 0 0 1 .5-.5h13.385a.5.5 0 0 1 .488.392c.21.95.317 1.828.317 2.608 0 4.593-1.577 8.484-4.559 11.253C23.528 29.669 20.048 31 16.33 31z" fill="#e6e6e6" class="fill-263238"></path></svg>